<mxfile host="Electron" modified="2023-10-03T08:03:27.727Z" agent="Mozilla/5.0 (Windows NT 10.0; Win64; x64) AppleWebKit/537.36 (KHTML, like Gecko) draw.io/21.1.2 Chrome/106.0.5249.199 Electron/21.4.3 Safari/537.36" etag="hZVT1DH9vNZ9K4D1-5hC" version="21.1.2" type="device">
  <diagram id="3Z-C-78g_D2M4Hc5ZRfr" name="ページ1">
    <mxGraphModel dx="1182" dy="690" grid="1" gridSize="10" guides="1" tooltips="1" connect="1" arrows="1" fold="1" page="0" pageScale="1" pageWidth="827" pageHeight="1169" math="1" shadow="0">
      <root>
        <mxCell id="0" />
        <mxCell id="1" parent="0" />
        <mxCell id="Ed7h0rjgSuqTBP_lDaPy-53" value="&lt;font style=&quot;font-size: 24px;&quot;&gt;`i_{rGD}`&lt;/font&gt;" style="text;html=1;align=center;verticalAlign=middle;resizable=0;points=[];autosize=1;strokeColor=none;fillColor=none;fontSize=11;fontFamily=Helvetica;fontColor=default;" parent="1" vertex="1">
          <mxGeometry x="790" y="524" width="120" height="40" as="geometry" />
        </mxCell>
        <mxCell id="Hx_Fb0d7paaMFf6icbwY-86" value="&lt;font style=&quot;font-size: 20px;&quot;&gt;`g_{m p}+\Delta g_{m}`&lt;/font&gt;" style="text;html=1;align=center;verticalAlign=middle;resizable=0;points=[];autosize=1;strokeColor=none;fillColor=none;fontSize=11;fontFamily=Helvetica;fontColor=default;" parent="1" vertex="1">
          <mxGeometry x="269.5" y="370" width="230" height="40" as="geometry" />
        </mxCell>
        <mxCell id="Hx_Fb0d7paaMFf6icbwY-153" value="&lt;font style=&quot;font-size: 24px;&quot;&gt;`g_{m n}v_{i n}`&lt;/font&gt;" style="text;html=1;align=center;verticalAlign=middle;resizable=0;points=[];autosize=1;strokeColor=none;fillColor=none;fontSize=11;fontFamily=Helvetica;fontColor=default;" parent="1" vertex="1">
          <mxGeometry x="400" y="216" width="190" height="40" as="geometry" />
        </mxCell>
        <mxCell id="5XcIdOqlf6TmVMvbWogk-29" style="edgeStyle=orthogonalEdgeStyle;shape=connector;rounded=0;orthogonalLoop=1;jettySize=auto;html=1;exitX=1;exitY=0.5;exitDx=0;exitDy=0;exitPerimeter=0;labelBackgroundColor=default;strokeColor=default;fontFamily=Helvetica;fontSize=11;fontColor=default;endArrow=none;endFill=0;" parent="1" source="Hx_Fb0d7paaMFf6icbwY-1" target="Ed7h0rjgSuqTBP_lDaPy-57" edge="1">
          <mxGeometry relative="1" as="geometry">
            <mxPoint x="640" y="160" as="targetPoint" />
          </mxGeometry>
        </mxCell>
        <mxCell id="Hx_Fb0d7paaMFf6icbwY-1" value="" style="pointerEvents=1;verticalLabelPosition=bottom;shadow=0;dashed=0;align=center;html=1;verticalAlign=top;shape=mxgraph.electrical.resistors.resistor_1;direction=south;flipV=1;" parent="1" vertex="1">
          <mxGeometry x="630" y="220" width="20" height="100" as="geometry" />
        </mxCell>
        <mxCell id="5XcIdOqlf6TmVMvbWogk-35" style="edgeStyle=orthogonalEdgeStyle;shape=connector;rounded=0;orthogonalLoop=1;jettySize=auto;html=1;exitX=0.5;exitY=0;exitDx=0;exitDy=0;exitPerimeter=0;labelBackgroundColor=default;strokeColor=default;fontFamily=Helvetica;fontSize=11;fontColor=default;endArrow=none;endFill=0;" parent="1" source="Hx_Fb0d7paaMFf6icbwY-2" target="Ed7h0rjgSuqTBP_lDaPy-56" edge="1">
          <mxGeometry relative="1" as="geometry">
            <mxPoint x="560" y="160" as="targetPoint" />
          </mxGeometry>
        </mxCell>
        <mxCell id="5XcIdOqlf6TmVMvbWogk-36" style="edgeStyle=orthogonalEdgeStyle;shape=connector;rounded=0;orthogonalLoop=1;jettySize=auto;html=1;exitX=0.5;exitY=1;exitDx=0;exitDy=0;exitPerimeter=0;entryX=0;entryY=0.5;entryDx=0;entryDy=0;entryPerimeter=0;labelBackgroundColor=default;strokeColor=default;fontFamily=Helvetica;fontSize=11;fontColor=default;endArrow=none;endFill=0;" parent="1" source="Hx_Fb0d7paaMFf6icbwY-2" target="Hx_Fb0d7paaMFf6icbwY-1" edge="1">
          <mxGeometry relative="1" as="geometry">
            <Array as="points">
              <mxPoint x="560" y="320" />
              <mxPoint x="640" y="320" />
            </Array>
          </mxGeometry>
        </mxCell>
        <mxCell id="Hx_Fb0d7paaMFf6icbwY-2" value="" style="pointerEvents=1;verticalLabelPosition=bottom;shadow=0;dashed=0;align=center;html=1;verticalAlign=top;shape=mxgraph.electrical.signal_sources.source;aspect=fixed;points=[[0.5,0,0],[1,0.5,0],[0.5,1,0],[0,0.5,0]];elSignalType=dc2;flipV=0;" parent="1" vertex="1">
          <mxGeometry x="530" y="240" width="60" height="60" as="geometry" />
        </mxCell>
        <mxCell id="5XcIdOqlf6TmVMvbWogk-28" style="edgeStyle=orthogonalEdgeStyle;shape=connector;rounded=0;orthogonalLoop=1;jettySize=auto;html=1;exitX=1;exitY=0.5;exitDx=0;exitDy=0;labelBackgroundColor=default;strokeColor=default;fontFamily=Helvetica;fontSize=11;fontColor=default;endArrow=none;endFill=0;" parent="1" source="Hx_Fb0d7paaMFf6icbwY-4" target="Ed7h0rjgSuqTBP_lDaPy-3" edge="1">
          <mxGeometry relative="1" as="geometry">
            <mxPoint x="840" y="160" as="targetPoint" />
          </mxGeometry>
        </mxCell>
        <mxCell id="Hx_Fb0d7paaMFf6icbwY-4" value="" style="verticalLabelPosition=bottom;shadow=0;dashed=0;align=center;html=1;verticalAlign=top;strokeWidth=1;shape=ellipse;perimeter=ellipsePerimeter;aspect=fixed;" parent="1" vertex="1">
          <mxGeometry x="436" y="216" width="8" height="8" as="geometry" />
        </mxCell>
        <mxCell id="5XcIdOqlf6TmVMvbWogk-46" style="edgeStyle=orthogonalEdgeStyle;shape=connector;rounded=0;orthogonalLoop=1;jettySize=auto;html=1;exitX=1;exitY=0.5;exitDx=0;exitDy=0;labelBackgroundColor=default;strokeColor=default;fontFamily=Helvetica;fontSize=11;fontColor=default;endArrow=classic;endFill=1;" parent="1" source="Hx_Fb0d7paaMFf6icbwY-7" target="Hx_Fb0d7paaMFf6icbwY-2" edge="1">
          <mxGeometry relative="1" as="geometry">
            <mxPoint x="510" y="260" as="targetPoint" />
            <Array as="points">
              <mxPoint x="480" y="320" />
              <mxPoint x="480" y="280" />
            </Array>
          </mxGeometry>
        </mxCell>
        <mxCell id="Hx_Fb0d7paaMFf6icbwY-7" value="" style="verticalLabelPosition=bottom;shadow=0;dashed=0;align=center;html=1;verticalAlign=top;strokeWidth=1;shape=ellipse;perimeter=ellipsePerimeter;aspect=fixed;" parent="1" vertex="1">
          <mxGeometry x="436" y="316" width="8" height="8" as="geometry" />
        </mxCell>
        <mxCell id="Hx_Fb0d7paaMFf6icbwY-35" value="&lt;font style=&quot;font-size: 24px;&quot;&gt;`-v_{i n}`&lt;/font&gt;" style="text;html=1;align=center;verticalAlign=middle;resizable=0;points=[];autosize=1;strokeColor=none;fillColor=none;fontSize=11;fontFamily=Helvetica;fontColor=default;" parent="1" vertex="1">
          <mxGeometry x="385" y="250" width="110" height="40" as="geometry" />
        </mxCell>
        <mxCell id="Hx_Fb0d7paaMFf6icbwY-47" style="edgeStyle=orthogonalEdgeStyle;shape=connector;rounded=0;orthogonalLoop=1;jettySize=auto;html=1;exitX=0;exitY=0.5;exitDx=0;exitDy=0;exitPerimeter=0;entryX=0.5;entryY=0;entryDx=0;entryDy=0;entryPerimeter=0;labelBackgroundColor=default;strokeColor=default;fontFamily=Helvetica;fontSize=11;fontColor=default;endArrow=none;endFill=0;" parent="1" source="Hx_Fb0d7paaMFf6icbwY-48" target="Hx_Fb0d7paaMFf6icbwY-50" edge="1">
          <mxGeometry relative="1" as="geometry">
            <Array as="points">
              <mxPoint x="560" y="360" />
              <mxPoint x="440" y="360" />
            </Array>
          </mxGeometry>
        </mxCell>
        <mxCell id="Hx_Fb0d7paaMFf6icbwY-74" style="edgeStyle=orthogonalEdgeStyle;shape=connector;rounded=0;orthogonalLoop=1;jettySize=auto;html=1;exitX=1;exitY=0.5;exitDx=0;exitDy=0;exitPerimeter=0;entryX=0.5;entryY=1;entryDx=0;entryDy=0;entryPerimeter=0;labelBackgroundColor=default;strokeColor=default;fontFamily=Helvetica;fontSize=24;fontColor=default;endArrow=none;endFill=0;" parent="1" source="Hx_Fb0d7paaMFf6icbwY-48" target="Hx_Fb0d7paaMFf6icbwY-50" edge="1">
          <mxGeometry x="0.0581" y="-6" relative="1" as="geometry">
            <Array as="points">
              <mxPoint x="560" y="520" />
              <mxPoint x="440" y="520" />
            </Array>
            <mxPoint as="offset" />
          </mxGeometry>
        </mxCell>
        <mxCell id="Hx_Fb0d7paaMFf6icbwY-48" value="" style="pointerEvents=1;verticalLabelPosition=bottom;shadow=0;dashed=0;align=center;html=1;verticalAlign=top;shape=mxgraph.electrical.resistors.resistor_1;direction=south;" parent="1" vertex="1">
          <mxGeometry x="550" y="390" width="20" height="100" as="geometry" />
        </mxCell>
        <mxCell id="Hx_Fb0d7paaMFf6icbwY-50" value="" style="pointerEvents=1;verticalLabelPosition=bottom;shadow=0;dashed=0;align=center;html=1;verticalAlign=top;shape=mxgraph.electrical.signal_sources.source;aspect=fixed;points=[[0.5,0,0],[1,0.5,0],[0.5,1,0],[0,0.5,0]];elSignalType=dc2;" parent="1" vertex="1">
          <mxGeometry x="410" y="410" width="60" height="60" as="geometry" />
        </mxCell>
        <mxCell id="Hx_Fb0d7paaMFf6icbwY-76" style="edgeStyle=orthogonalEdgeStyle;shape=connector;rounded=0;orthogonalLoop=1;jettySize=auto;html=1;exitX=1;exitY=0.5;exitDx=0;exitDy=0;entryX=0;entryY=0.5;entryDx=0;entryDy=0;labelBackgroundColor=default;strokeColor=default;fontFamily=Helvetica;fontSize=24;fontColor=default;endArrow=none;endFill=0;" parent="1" source="Hx_Fb0d7paaMFf6icbwY-52" target="Hx_Fb0d7paaMFf6icbwY-61" edge="1">
          <mxGeometry relative="1" as="geometry" />
        </mxCell>
        <mxCell id="Hx_Fb0d7paaMFf6icbwY-52" value="" style="verticalLabelPosition=bottom;shadow=0;dashed=0;align=center;html=1;verticalAlign=top;strokeWidth=1;shape=ellipse;perimeter=ellipsePerimeter;aspect=fixed;" parent="1" vertex="1">
          <mxGeometry x="235.5" y="356" width="8" height="8" as="geometry" />
        </mxCell>
        <mxCell id="Hx_Fb0d7paaMFf6icbwY-54" style="edgeStyle=orthogonalEdgeStyle;shape=connector;rounded=0;orthogonalLoop=1;jettySize=auto;html=1;exitX=0;exitY=0.5;exitDx=0;exitDy=0;exitPerimeter=0;entryX=0.5;entryY=0;entryDx=0;entryDy=0;entryPerimeter=0;labelBackgroundColor=default;strokeColor=default;fontFamily=Helvetica;fontSize=11;fontColor=default;endArrow=none;endFill=0;" parent="1" source="Hx_Fb0d7paaMFf6icbwY-55" target="Hx_Fb0d7paaMFf6icbwY-57" edge="1">
          <mxGeometry y="10" relative="1" as="geometry">
            <Array as="points">
              <mxPoint x="640" y="360" />
              <mxPoint x="760" y="360" />
            </Array>
            <mxPoint as="offset" />
          </mxGeometry>
        </mxCell>
        <mxCell id="Hx_Fb0d7paaMFf6icbwY-75" style="edgeStyle=orthogonalEdgeStyle;shape=connector;rounded=0;orthogonalLoop=1;jettySize=auto;html=1;exitX=1;exitY=0.5;exitDx=0;exitDy=0;exitPerimeter=0;entryX=0.5;entryY=1;entryDx=0;entryDy=0;entryPerimeter=0;labelBackgroundColor=default;strokeColor=default;fontFamily=Helvetica;fontSize=24;fontColor=default;endArrow=none;endFill=0;" parent="1" source="Hx_Fb0d7paaMFf6icbwY-55" target="Hx_Fb0d7paaMFf6icbwY-57" edge="1">
          <mxGeometry relative="1" as="geometry">
            <Array as="points">
              <mxPoint x="640" y="520" />
              <mxPoint x="760" y="520" />
            </Array>
          </mxGeometry>
        </mxCell>
        <mxCell id="Hx_Fb0d7paaMFf6icbwY-55" value="" style="pointerEvents=1;verticalLabelPosition=bottom;shadow=0;dashed=0;align=center;html=1;verticalAlign=top;shape=mxgraph.electrical.resistors.resistor_1;direction=south;flipH=1;" parent="1" vertex="1">
          <mxGeometry x="630" y="390" width="20" height="100" as="geometry" />
        </mxCell>
        <mxCell id="Hx_Fb0d7paaMFf6icbwY-57" value="" style="pointerEvents=1;verticalLabelPosition=bottom;shadow=0;dashed=0;align=center;html=1;verticalAlign=top;shape=mxgraph.electrical.signal_sources.source;aspect=fixed;points=[[0.5,0,0],[1,0.5,0],[0.5,1,0],[0,0.5,0]];elSignalType=dc2;direction=east;flipH=1;" parent="1" vertex="1">
          <mxGeometry x="730" y="410" width="60" height="60" as="geometry" />
        </mxCell>
        <mxCell id="Hx_Fb0d7paaMFf6icbwY-82" style="edgeStyle=orthogonalEdgeStyle;shape=connector;rounded=0;orthogonalLoop=1;jettySize=auto;html=1;exitX=1;exitY=0.5;exitDx=0;exitDy=0;labelBackgroundColor=default;strokeColor=default;fontFamily=Helvetica;fontSize=24;fontColor=default;endArrow=classic;endFill=1;entryX=0;entryY=0.667;entryDx=0;entryDy=0;entryPerimeter=0;" parent="1" source="Hx_Fb0d7paaMFf6icbwY-59" target="Hx_Fb0d7paaMFf6icbwY-50" edge="1">
          <mxGeometry relative="1" as="geometry">
            <mxPoint x="445" y="450" as="targetPoint" />
            <Array as="points">
              <mxPoint x="380" y="520" />
              <mxPoint x="380" y="450" />
            </Array>
          </mxGeometry>
        </mxCell>
        <mxCell id="Hx_Fb0d7paaMFf6icbwY-59" value="" style="verticalLabelPosition=bottom;shadow=0;dashed=0;align=center;html=1;verticalAlign=top;strokeWidth=1;shape=ellipse;perimeter=ellipsePerimeter;aspect=fixed;" parent="1" vertex="1">
          <mxGeometry x="235.5" y="516" width="8" height="8" as="geometry" />
        </mxCell>
        <mxCell id="Hx_Fb0d7paaMFf6icbwY-61" value="" style="verticalLabelPosition=bottom;shadow=0;dashed=0;align=center;html=1;verticalAlign=top;strokeWidth=1;shape=ellipse;perimeter=ellipsePerimeter;aspect=fixed;" parent="1" vertex="1">
          <mxGeometry x="946" y="356" width="8" height="8" as="geometry" />
        </mxCell>
        <mxCell id="Hx_Fb0d7paaMFf6icbwY-83" style="edgeStyle=orthogonalEdgeStyle;shape=connector;rounded=0;orthogonalLoop=1;jettySize=auto;html=1;exitX=0;exitY=0.5;exitDx=0;exitDy=0;entryX=0;entryY=0.667;entryDx=0;entryDy=0;entryPerimeter=0;labelBackgroundColor=default;strokeColor=default;fontFamily=Helvetica;fontSize=24;fontColor=default;endArrow=classic;endFill=1;" parent="1" source="Hx_Fb0d7paaMFf6icbwY-62" target="Hx_Fb0d7paaMFf6icbwY-57" edge="1">
          <mxGeometry relative="1" as="geometry">
            <Array as="points">
              <mxPoint x="820" y="520" />
              <mxPoint x="820" y="450" />
            </Array>
          </mxGeometry>
        </mxCell>
        <mxCell id="Hx_Fb0d7paaMFf6icbwY-121" style="edgeStyle=orthogonalEdgeStyle;shape=connector;rounded=0;orthogonalLoop=1;jettySize=auto;html=1;exitX=1;exitY=0.5;exitDx=0;exitDy=0;entryX=0.428;entryY=0.493;entryDx=0;entryDy=0;labelBackgroundColor=default;strokeColor=default;fontFamily=Helvetica;fontSize=24;fontColor=default;endArrow=none;endFill=0;entryPerimeter=0;" parent="1" source="Hx_Fb0d7paaMFf6icbwY-62" target="BeMA3lvDZmvhr9BcJiwD-31" edge="1">
          <mxGeometry relative="1" as="geometry">
            <mxPoint x="916" y="520" as="targetPoint" />
          </mxGeometry>
        </mxCell>
        <mxCell id="Hx_Fb0d7paaMFf6icbwY-62" value="" style="verticalLabelPosition=bottom;shadow=0;dashed=0;align=center;html=1;verticalAlign=top;strokeWidth=1;shape=ellipse;perimeter=ellipsePerimeter;aspect=fixed;" parent="1" vertex="1">
          <mxGeometry x="946" y="516" width="8" height="8" as="geometry" />
        </mxCell>
        <mxCell id="Hx_Fb0d7paaMFf6icbwY-67" value="" style="endArrow=classic;html=1;rounded=0;labelBackgroundColor=default;strokeColor=default;fontFamily=Helvetica;fontSize=11;fontColor=default;shape=connector;" parent="1" edge="1">
          <mxGeometry x="-1" y="-4" width="50" height="50" relative="1" as="geometry">
            <mxPoint x="239.5" y="420" as="sourcePoint" />
            <mxPoint x="239.5" y="370" as="targetPoint" />
            <mxPoint as="offset" />
          </mxGeometry>
        </mxCell>
        <mxCell id="Hx_Fb0d7paaMFf6icbwY-68" value="" style="endArrow=none;html=1;rounded=0;labelBackgroundColor=default;strokeColor=default;fontFamily=Helvetica;fontSize=11;fontColor=default;shape=connector;" parent="1" edge="1">
          <mxGeometry width="50" height="50" relative="1" as="geometry">
            <mxPoint x="239.5" y="510" as="sourcePoint" />
            <mxPoint x="239.5" y="460" as="targetPoint" />
          </mxGeometry>
        </mxCell>
        <mxCell id="Hx_Fb0d7paaMFf6icbwY-70" value="" style="endArrow=classic;html=1;rounded=0;labelBackgroundColor=default;strokeColor=default;fontFamily=Helvetica;fontSize=11;fontColor=default;shape=connector;" parent="1" edge="1">
          <mxGeometry x="-1" y="-4" width="50" height="50" relative="1" as="geometry">
            <mxPoint x="949.76" y="420" as="sourcePoint" />
            <mxPoint x="949.76" y="370" as="targetPoint" />
            <mxPoint as="offset" />
          </mxGeometry>
        </mxCell>
        <mxCell id="Hx_Fb0d7paaMFf6icbwY-71" value="" style="endArrow=none;html=1;rounded=0;labelBackgroundColor=default;strokeColor=default;fontFamily=Helvetica;fontSize=11;fontColor=default;shape=connector;" parent="1" edge="1">
          <mxGeometry width="50" height="50" relative="1" as="geometry">
            <mxPoint x="949.76" y="510" as="sourcePoint" />
            <mxPoint x="949.76" y="460" as="targetPoint" />
          </mxGeometry>
        </mxCell>
        <mxCell id="Hx_Fb0d7paaMFf6icbwY-77" value="" style="shape=waypoint;sketch=0;fillStyle=solid;size=6;pointerEvents=1;points=[];fillColor=none;resizable=0;rotatable=0;perimeter=centerPerimeter;snapToPoint=1;fontFamily=Helvetica;fontSize=11;fontColor=default;" parent="1" vertex="1">
          <mxGeometry x="420" y="340" width="40" height="40" as="geometry" />
        </mxCell>
        <mxCell id="Hx_Fb0d7paaMFf6icbwY-78" value="" style="shape=waypoint;sketch=0;fillStyle=solid;size=6;pointerEvents=1;points=[];fillColor=none;resizable=0;rotatable=0;perimeter=centerPerimeter;snapToPoint=1;fontFamily=Helvetica;fontSize=11;fontColor=default;" parent="1" vertex="1">
          <mxGeometry x="540" y="340" width="40" height="40" as="geometry" />
        </mxCell>
        <mxCell id="Hx_Fb0d7paaMFf6icbwY-79" value="" style="shape=waypoint;sketch=0;fillStyle=solid;size=6;pointerEvents=1;points=[];fillColor=none;resizable=0;rotatable=0;perimeter=centerPerimeter;snapToPoint=1;fontFamily=Helvetica;fontSize=11;fontColor=default;" parent="1" vertex="1">
          <mxGeometry x="620" y="340" width="40" height="40" as="geometry" />
        </mxCell>
        <mxCell id="Hx_Fb0d7paaMFf6icbwY-80" value="" style="shape=waypoint;sketch=0;fillStyle=solid;size=6;pointerEvents=1;points=[];fillColor=none;resizable=0;rotatable=0;perimeter=centerPerimeter;snapToPoint=1;fontFamily=Helvetica;fontSize=11;fontColor=default;" parent="1" vertex="1">
          <mxGeometry x="740" y="340" width="40" height="40" as="geometry" />
        </mxCell>
        <mxCell id="Hx_Fb0d7paaMFf6icbwY-84" value="&lt;font style=&quot;font-size: 24px;&quot;&gt;`v_{pS1}`&lt;/font&gt;" style="text;html=1;align=center;verticalAlign=middle;resizable=0;points=[];autosize=1;strokeColor=none;fillColor=none;fontSize=11;fontFamily=Helvetica;fontColor=default;" parent="1" vertex="1">
          <mxGeometry x="179.5" y="420" width="120" height="40" as="geometry" />
        </mxCell>
        <mxCell id="Hx_Fb0d7paaMFf6icbwY-85" value="&lt;font style=&quot;font-size: 24px;&quot;&gt;`v_{pS1}`&lt;/font&gt;" style="text;html=1;align=center;verticalAlign=middle;resizable=0;points=[];autosize=1;strokeColor=none;fillColor=none;fontSize=11;fontFamily=Helvetica;fontColor=default;" parent="1" vertex="1">
          <mxGeometry x="890" y="420" width="120" height="40" as="geometry" />
        </mxCell>
        <mxCell id="Hx_Fb0d7paaMFf6icbwY-88" value="&lt;font style=&quot;font-size: 20px;&quot;&gt;`g_{m p}-\Delta g_{m}`&lt;/font&gt;" style="text;html=1;align=center;verticalAlign=middle;resizable=0;points=[];autosize=1;strokeColor=none;fillColor=none;fontSize=11;fontFamily=Helvetica;fontColor=default;" parent="1" vertex="1">
          <mxGeometry x="710" y="370" width="220" height="40" as="geometry" />
        </mxCell>
        <mxCell id="Hx_Fb0d7paaMFf6icbwY-89" value="&lt;font style=&quot;font-size: 24px;&quot;&gt;`g_{dp}`&lt;/font&gt;" style="text;html=1;align=center;verticalAlign=middle;resizable=0;points=[];autosize=1;strokeColor=none;fillColor=none;fontSize=11;fontFamily=Helvetica;fontColor=default;" parent="1" vertex="1">
          <mxGeometry x="545" y="420" width="110" height="40" as="geometry" />
        </mxCell>
        <mxCell id="Hx_Fb0d7paaMFf6icbwY-120" value="&lt;font style=&quot;font-size: 24px;&quot;&gt;`R_{L}`&lt;/font&gt;" style="text;html=1;align=center;verticalAlign=middle;resizable=0;points=[];autosize=1;strokeColor=none;fillColor=none;fontSize=11;fontFamily=Helvetica;fontColor=default;" parent="1" vertex="1">
          <mxGeometry x="499.5" y="622" width="100" height="40" as="geometry" />
        </mxCell>
        <mxCell id="Hx_Fb0d7paaMFf6icbwY-122" value="" style="endArrow=none;html=1;rounded=0;labelBackgroundColor=default;strokeColor=default;fontFamily=Helvetica;fontSize=24;fontColor=default;shape=connector;exitX=0;exitY=0.5;exitDx=0;exitDy=0;" parent="1" source="Ed7h0rjgSuqTBP_lDaPy-32" target="Hx_Fb0d7paaMFf6icbwY-146" edge="1">
          <mxGeometry width="50" height="50" relative="1" as="geometry">
            <mxPoint x="760" y="560" as="sourcePoint" />
            <mxPoint x="680" y="520" as="targetPoint" />
            <Array as="points">
              <mxPoint x="690" y="580" />
            </Array>
          </mxGeometry>
        </mxCell>
        <mxCell id="Hx_Fb0d7paaMFf6icbwY-123" value="" style="endArrow=none;html=1;rounded=0;labelBackgroundColor=default;strokeColor=default;fontFamily=Helvetica;fontSize=24;fontColor=default;shape=connector;entryX=0;entryY=0.5;entryDx=0;entryDy=0;" parent="1" source="Hx_Fb0d7paaMFf6icbwY-151" target="Ed7h0rjgSuqTBP_lDaPy-31" edge="1">
          <mxGeometry width="50" height="50" relative="1" as="geometry">
            <mxPoint x="520" y="580" as="sourcePoint" />
            <mxPoint x="760" y="580" as="targetPoint" />
          </mxGeometry>
        </mxCell>
        <mxCell id="Hx_Fb0d7paaMFf6icbwY-126" style="edgeStyle=orthogonalEdgeStyle;shape=connector;rounded=0;orthogonalLoop=1;jettySize=auto;html=1;exitX=0;exitY=0.5;exitDx=0;exitDy=0;exitPerimeter=0;labelBackgroundColor=default;strokeColor=default;fontFamily=Helvetica;fontSize=24;fontColor=default;endArrow=none;endFill=0;" parent="1" source="Hx_Fb0d7paaMFf6icbwY-124" edge="1">
          <mxGeometry relative="1" as="geometry">
            <mxPoint x="510" y="520" as="targetPoint" />
          </mxGeometry>
        </mxCell>
        <mxCell id="Hx_Fb0d7paaMFf6icbwY-132" style="edgeStyle=orthogonalEdgeStyle;shape=connector;rounded=0;orthogonalLoop=1;jettySize=auto;html=1;exitX=1;exitY=0.5;exitDx=0;exitDy=0;exitPerimeter=0;entryX=0.5;entryY=0;entryDx=0;entryDy=0;entryPerimeter=0;labelBackgroundColor=default;strokeColor=default;fontFamily=Helvetica;fontSize=24;fontColor=default;endArrow=none;endFill=0;" parent="1" source="Hx_Fb0d7paaMFf6icbwY-124" target="Hx_Fb0d7paaMFf6icbwY-131" edge="1">
          <mxGeometry relative="1" as="geometry" />
        </mxCell>
        <mxCell id="Hx_Fb0d7paaMFf6icbwY-124" value="" style="pointerEvents=1;verticalLabelPosition=bottom;shadow=0;dashed=0;align=center;html=1;verticalAlign=top;shape=mxgraph.electrical.resistors.resistor_1;direction=south;fontFamily=Helvetica;fontSize=24;fontColor=default;" parent="1" vertex="1">
          <mxGeometry x="499.5" y="592" width="20" height="100" as="geometry" />
        </mxCell>
        <mxCell id="Hx_Fb0d7paaMFf6icbwY-131" value="" style="pointerEvents=1;verticalLabelPosition=bottom;shadow=0;dashed=0;align=center;html=1;verticalAlign=top;shape=mxgraph.electrical.signal_sources.signal_ground;fontFamily=Helvetica;fontSize=24;fontColor=default;" parent="1" vertex="1">
          <mxGeometry x="487" y="680" width="45" height="30" as="geometry" />
        </mxCell>
        <mxCell id="Hx_Fb0d7paaMFf6icbwY-136" style="edgeStyle=orthogonalEdgeStyle;shape=connector;rounded=0;orthogonalLoop=1;jettySize=auto;html=1;exitX=0;exitY=0.5;exitDx=0;exitDy=0;labelBackgroundColor=default;strokeColor=default;fontFamily=Helvetica;fontSize=24;fontColor=default;endArrow=none;endFill=0;" parent="1" source="Hx_Fb0d7paaMFf6icbwY-133" target="Hx_Fb0d7paaMFf6icbwY-152" edge="1">
          <mxGeometry relative="1" as="geometry">
            <mxPoint x="520" y="600" as="targetPoint" />
          </mxGeometry>
        </mxCell>
        <mxCell id="Hx_Fb0d7paaMFf6icbwY-133" value="" style="verticalLabelPosition=bottom;shadow=0;dashed=0;align=center;html=1;verticalAlign=top;strokeWidth=1;shape=ellipse;perimeter=ellipsePerimeter;aspect=fixed;fontFamily=Helvetica;fontSize=24;fontColor=default;" parent="1" vertex="1">
          <mxGeometry x="636" y="596" width="8" height="8" as="geometry" />
        </mxCell>
        <mxCell id="Hx_Fb0d7paaMFf6icbwY-145" value="" style="shape=waypoint;sketch=0;fillStyle=solid;size=6;pointerEvents=1;points=[];fillColor=none;resizable=0;rotatable=0;perimeter=centerPerimeter;snapToPoint=1;fontFamily=Helvetica;fontSize=11;fontColor=default;" parent="1" vertex="1">
          <mxGeometry x="490" y="500" width="40" height="40" as="geometry" />
        </mxCell>
        <mxCell id="Hx_Fb0d7paaMFf6icbwY-146" value="" style="shape=waypoint;sketch=0;fillStyle=solid;size=6;pointerEvents=1;points=[];fillColor=none;resizable=0;rotatable=0;perimeter=centerPerimeter;snapToPoint=1;fontFamily=Helvetica;fontSize=11;fontColor=default;" parent="1" vertex="1">
          <mxGeometry x="670" y="500" width="40" height="40" as="geometry" />
        </mxCell>
        <mxCell id="Hx_Fb0d7paaMFf6icbwY-151" value="" style="shape=waypoint;sketch=0;fillStyle=solid;size=6;pointerEvents=1;points=[];fillColor=none;resizable=0;rotatable=0;perimeter=centerPerimeter;snapToPoint=1;fontFamily=Helvetica;fontSize=11;fontColor=default;" parent="1" vertex="1">
          <mxGeometry x="490" y="560" width="40" height="40" as="geometry" />
        </mxCell>
        <mxCell id="Hx_Fb0d7paaMFf6icbwY-152" value="" style="shape=waypoint;sketch=0;fillStyle=solid;size=6;pointerEvents=1;points=[];fillColor=none;resizable=0;rotatable=0;perimeter=centerPerimeter;snapToPoint=1;fontFamily=Helvetica;fontSize=11;fontColor=default;" parent="1" vertex="1">
          <mxGeometry x="490" y="580" width="40" height="40" as="geometry" />
        </mxCell>
        <mxCell id="Hx_Fb0d7paaMFf6icbwY-155" value="&lt;font style=&quot;font-size: 24px;&quot;&gt;`v_{pS1}`&lt;/font&gt;" style="text;html=1;align=center;verticalAlign=middle;resizable=0;points=[];autosize=1;strokeColor=none;fillColor=none;fontSize=11;fontFamily=Helvetica;fontColor=default;" parent="1" vertex="1">
          <mxGeometry x="535" y="356" width="120" height="40" as="geometry" />
        </mxCell>
        <mxCell id="Hx_Fb0d7paaMFf6icbwY-158" value="&lt;font style=&quot;font-size: 24px;&quot;&gt;`v_{out+}`&lt;/font&gt;" style="text;html=1;align=center;verticalAlign=middle;resizable=0;points=[];autosize=1;strokeColor=none;fillColor=none;fontSize=11;fontFamily=Helvetica;fontColor=default;" parent="1" vertex="1">
          <mxGeometry x="550" y="596" width="130" height="40" as="geometry" />
        </mxCell>
        <mxCell id="5XcIdOqlf6TmVMvbWogk-12" value="" style="shape=waypoint;sketch=0;fillStyle=solid;size=6;pointerEvents=1;points=[];fillColor=none;resizable=0;rotatable=0;perimeter=centerPerimeter;snapToPoint=1;fontFamily=Helvetica;fontSize=11;fontColor=default;" parent="1" vertex="1">
          <mxGeometry x="580" y="340" width="40" height="40" as="geometry" />
        </mxCell>
        <mxCell id="Hx_Fb0d7paaMFf6icbwY-31" value="" style="endArrow=classic;html=1;rounded=0;labelBackgroundColor=default;strokeColor=default;fontFamily=Helvetica;fontSize=11;fontColor=default;shape=connector;" parent="1" edge="1">
          <mxGeometry x="-1" y="-4" width="50" height="50" relative="1" as="geometry">
            <mxPoint x="439.90000000000003" y="260" as="sourcePoint" />
            <mxPoint x="440.07" y="230" as="targetPoint" />
            <mxPoint as="offset" />
          </mxGeometry>
        </mxCell>
        <mxCell id="Hx_Fb0d7paaMFf6icbwY-32" value="" style="endArrow=none;html=1;rounded=0;labelBackgroundColor=default;strokeColor=default;fontFamily=Helvetica;fontSize=11;fontColor=default;shape=connector;" parent="1" edge="1">
          <mxGeometry x="1" y="-269" width="50" height="50" relative="1" as="geometry">
            <mxPoint x="440" y="290" as="sourcePoint" />
            <mxPoint x="439.56999999999994" y="310" as="targetPoint" />
            <mxPoint x="-9" y="-70" as="offset" />
          </mxGeometry>
        </mxCell>
        <mxCell id="5XcIdOqlf6TmVMvbWogk-40" value="" style="endArrow=none;html=1;rounded=0;labelBackgroundColor=default;strokeColor=default;fontFamily=Helvetica;fontSize=11;fontColor=default;shape=connector;" parent="1" target="5XcIdOqlf6TmVMvbWogk-42" edge="1">
          <mxGeometry width="50" height="50" relative="1" as="geometry">
            <mxPoint x="600" y="360" as="sourcePoint" />
            <mxPoint x="600" y="240" as="targetPoint" />
          </mxGeometry>
        </mxCell>
        <mxCell id="5XcIdOqlf6TmVMvbWogk-42" value="" style="shape=waypoint;sketch=0;fillStyle=solid;size=6;pointerEvents=1;points=[];fillColor=none;resizable=0;rotatable=0;perimeter=centerPerimeter;snapToPoint=1;fontFamily=Helvetica;fontSize=11;fontColor=default;" parent="1" vertex="1">
          <mxGeometry x="580" y="300" width="40" height="40" as="geometry" />
        </mxCell>
        <mxCell id="JKdnkWJyfVDF3cyXRBnW-1" value="&lt;font style=&quot;font-size: 24px;&quot;&gt;`g_{dn}`&lt;/font&gt;" style="text;html=1;align=center;verticalAlign=middle;resizable=0;points=[];autosize=1;strokeColor=none;fillColor=none;fontSize=11;fontFamily=Helvetica;fontColor=default;" parent="1" vertex="1">
          <mxGeometry x="620" y="250" width="110" height="40" as="geometry" />
        </mxCell>
        <mxCell id="BeMA3lvDZmvhr9BcJiwD-15" style="edgeStyle=orthogonalEdgeStyle;rounded=0;orthogonalLoop=1;jettySize=auto;html=1;exitX=0.5;exitY=0;exitDx=0;exitDy=0;exitPerimeter=0;entryX=0;entryY=0.5;entryDx=0;entryDy=0;endArrow=none;endFill=0;" parent="1" source="BeMA3lvDZmvhr9BcJiwD-6" target="Hx_Fb0d7paaMFf6icbwY-7" edge="1">
          <mxGeometry relative="1" as="geometry">
            <Array as="points">
              <mxPoint x="320" y="220" />
              <mxPoint x="380" y="220" />
              <mxPoint x="380" y="320" />
            </Array>
          </mxGeometry>
        </mxCell>
        <mxCell id="BeMA3lvDZmvhr9BcJiwD-6" value="" style="pointerEvents=1;verticalLabelPosition=bottom;shadow=0;dashed=0;align=center;html=1;verticalAlign=top;shape=mxgraph.electrical.signal_sources.source;aspect=fixed;points=[[0.5,0,0],[1,0.5,0],[0.5,1,0],[0,0.5,0]];elSignalType=ac;" parent="1" vertex="1">
          <mxGeometry x="290" y="240" width="60" height="60" as="geometry" />
        </mxCell>
        <mxCell id="jAQnVQWnFF6PZbc4m9He-2" style="edgeStyle=orthogonalEdgeStyle;rounded=0;orthogonalLoop=1;jettySize=auto;html=1;exitX=0.5;exitY=0;exitDx=0;exitDy=0;exitPerimeter=0;entryX=0.5;entryY=1;entryDx=0;entryDy=0;entryPerimeter=0;endArrow=none;endFill=0;" parent="1" source="BeMA3lvDZmvhr9BcJiwD-8" target="BeMA3lvDZmvhr9BcJiwD-6" edge="1">
          <mxGeometry relative="1" as="geometry" />
        </mxCell>
        <mxCell id="BeMA3lvDZmvhr9BcJiwD-8" value="" style="pointerEvents=1;verticalLabelPosition=bottom;shadow=0;dashed=0;align=center;html=1;verticalAlign=top;shape=mxgraph.electrical.signal_sources.signal_ground;fontFamily=Helvetica;fontSize=24;fontColor=default;" parent="1" vertex="1">
          <mxGeometry x="297.5" y="320" width="45" height="30" as="geometry" />
        </mxCell>
        <mxCell id="BeMA3lvDZmvhr9BcJiwD-16" style="edgeStyle=orthogonalEdgeStyle;shape=connector;rounded=0;orthogonalLoop=1;jettySize=auto;html=1;exitX=0.5;exitY=0;exitDx=0;exitDy=0;exitPerimeter=0;entryX=1;entryY=0.5;entryDx=0;entryDy=0;labelBackgroundColor=default;strokeColor=default;fontFamily=Helvetica;fontSize=11;fontColor=default;endArrow=none;endFill=0;" parent="1" edge="1">
          <mxGeometry relative="1" as="geometry">
            <Array as="points">
              <mxPoint x="1360" y="80" />
              <mxPoint x="1300" y="80" />
              <mxPoint x="1300" y="240" />
            </Array>
            <mxPoint x="1244" y="240" as="targetPoint" />
          </mxGeometry>
        </mxCell>
        <mxCell id="BeMA3lvDZmvhr9BcJiwD-18" value="&lt;span style=&quot;font-size: 24px;&quot;&gt;`v_{i n}`&lt;/span&gt;" style="text;html=1;align=center;verticalAlign=middle;resizable=0;points=[];autosize=1;strokeColor=none;fillColor=none;fontSize=11;fontFamily=Helvetica;fontColor=default;" parent="1" vertex="1">
          <mxGeometry x="296.5" y="284" width="110" height="40" as="geometry" />
        </mxCell>
        <mxCell id="BeMA3lvDZmvhr9BcJiwD-22" style="edgeStyle=orthogonalEdgeStyle;shape=connector;rounded=0;orthogonalLoop=1;jettySize=auto;html=1;exitX=1;exitY=0.5;exitDx=0;exitDy=0;exitPerimeter=0;entryX=0.5;entryY=1;entryDx=0;entryDy=0;labelBackgroundColor=default;strokeColor=default;fontFamily=Helvetica;fontSize=11;fontColor=default;endArrow=none;endFill=0;" parent="1" target="Hx_Fb0d7paaMFf6icbwY-59" edge="1">
          <mxGeometry relative="1" as="geometry">
            <mxPoint x="239.5" y="550" as="sourcePoint" />
          </mxGeometry>
        </mxCell>
        <mxCell id="BeMA3lvDZmvhr9BcJiwD-23" value="" style="pointerEvents=1;verticalLabelPosition=bottom;shadow=0;dashed=0;align=center;html=1;verticalAlign=top;shape=mxgraph.electrical.signal_sources.signal_ground;fontFamily=Helvetica;fontSize=24;fontColor=default;" parent="1" vertex="1">
          <mxGeometry x="217" y="550" width="45" height="30" as="geometry" />
        </mxCell>
        <mxCell id="euXp8F2LgVDezUdXFR2Z-4" style="edgeStyle=orthogonalEdgeStyle;rounded=0;orthogonalLoop=1;jettySize=auto;html=1;exitX=0.5;exitY=0;exitDx=0;exitDy=0;exitPerimeter=0;entryX=0.485;entryY=0.565;entryDx=0;entryDy=0;entryPerimeter=0;endArrow=none;endFill=0;" parent="1" source="BeMA3lvDZmvhr9BcJiwD-29" target="BeMA3lvDZmvhr9BcJiwD-31" edge="1">
          <mxGeometry relative="1" as="geometry" />
        </mxCell>
        <mxCell id="BeMA3lvDZmvhr9BcJiwD-29" value="" style="pointerEvents=1;verticalLabelPosition=bottom;shadow=0;dashed=0;align=center;html=1;verticalAlign=top;shape=mxgraph.electrical.signal_sources.signal_ground;fontFamily=Helvetica;fontSize=24;fontColor=default;direction=east;" parent="1" vertex="1">
          <mxGeometry x="940" y="550" width="45" height="30" as="geometry" />
        </mxCell>
        <mxCell id="BeMA3lvDZmvhr9BcJiwD-31" value="" style="shape=waypoint;sketch=0;fillStyle=solid;size=6;pointerEvents=1;points=[];fillColor=none;resizable=0;rotatable=0;perimeter=centerPerimeter;snapToPoint=1;fontFamily=Helvetica;fontSize=11;fontColor=default;" parent="1" vertex="1">
          <mxGeometry x="942.5" y="500" width="40" height="40" as="geometry" />
        </mxCell>
        <mxCell id="jAQnVQWnFF6PZbc4m9He-4" value="" style="endArrow=classic;html=1;rounded=0;labelBackgroundColor=default;strokeColor=default;fontFamily=Helvetica;fontSize=11;fontColor=default;shape=connector;" parent="1" edge="1">
          <mxGeometry width="50" height="50" relative="1" as="geometry">
            <mxPoint x="590" y="323.5" as="sourcePoint" />
            <mxPoint x="590" y="353.5" as="targetPoint" />
          </mxGeometry>
        </mxCell>
        <mxCell id="jAQnVQWnFF6PZbc4m9He-5" value="&lt;font style=&quot;font-size: 24px;&quot;&gt;`i_{u l}`&lt;/font&gt;" style="text;html=1;align=center;verticalAlign=middle;resizable=0;points=[];autosize=1;strokeColor=none;fillColor=none;fontSize=11;fontFamily=Helvetica;fontColor=default;" parent="1" vertex="1">
          <mxGeometry x="519.5" y="316" width="100" height="40" as="geometry" />
        </mxCell>
        <mxCell id="jAQnVQWnFF6PZbc4m9He-9" value="" style="endArrow=classic;html=1;rounded=0;labelBackgroundColor=default;strokeColor=default;fontFamily=Helvetica;fontSize=11;fontColor=default;shape=connector;" parent="1" edge="1">
          <mxGeometry width="50" height="50" relative="1" as="geometry">
            <mxPoint x="519.6" y="530" as="sourcePoint" />
            <mxPoint x="519.6" y="560" as="targetPoint" />
          </mxGeometry>
        </mxCell>
        <mxCell id="jAQnVQWnFF6PZbc4m9He-10" value="" style="endArrow=classic;html=1;rounded=0;labelBackgroundColor=default;strokeColor=default;fontFamily=Helvetica;fontSize=11;fontColor=default;shape=connector;" parent="1" edge="1">
          <mxGeometry width="50" height="50" relative="1" as="geometry">
            <mxPoint x="680" y="530" as="sourcePoint" />
            <mxPoint x="680" y="560" as="targetPoint" />
          </mxGeometry>
        </mxCell>
        <mxCell id="jAQnVQWnFF6PZbc4m9He-11" value="&lt;font style=&quot;font-size: 24px;&quot;&gt;`i_{ll}`&lt;/font&gt;" style="text;html=1;align=center;verticalAlign=middle;resizable=0;points=[];autosize=1;strokeColor=none;fillColor=none;fontSize=11;fontFamily=Helvetica;fontColor=default;" parent="1" vertex="1">
          <mxGeometry x="505" y="524" width="80" height="40" as="geometry" />
        </mxCell>
        <mxCell id="jAQnVQWnFF6PZbc4m9He-12" value="&lt;font style=&quot;font-size: 24px;&quot;&gt;`i_{lr}`&lt;/font&gt;" style="text;html=1;align=center;verticalAlign=middle;resizable=0;points=[];autosize=1;strokeColor=none;fillColor=none;fontSize=11;fontFamily=Helvetica;fontColor=default;" parent="1" vertex="1">
          <mxGeometry x="620" y="524" width="90" height="40" as="geometry" />
        </mxCell>
        <mxCell id="Ed7h0rjgSuqTBP_lDaPy-1" style="edgeStyle=orthogonalEdgeStyle;rounded=0;orthogonalLoop=1;jettySize=auto;html=1;exitX=0.5;exitY=0;exitDx=0;exitDy=0;exitPerimeter=0;entryX=0.485;entryY=0.565;entryDx=0;entryDy=0;entryPerimeter=0;endArrow=none;endFill=0;" parent="1" source="Ed7h0rjgSuqTBP_lDaPy-2" target="Ed7h0rjgSuqTBP_lDaPy-3" edge="1">
          <mxGeometry relative="1" as="geometry" />
        </mxCell>
        <mxCell id="Ed7h0rjgSuqTBP_lDaPy-2" value="" style="pointerEvents=1;verticalLabelPosition=bottom;shadow=0;dashed=0;align=center;html=1;verticalAlign=top;shape=mxgraph.electrical.signal_sources.signal_ground;fontFamily=Helvetica;fontSize=24;fontColor=default;direction=east;" parent="1" vertex="1">
          <mxGeometry x="817.5" y="250" width="45" height="30" as="geometry" />
        </mxCell>
        <mxCell id="Ed7h0rjgSuqTBP_lDaPy-3" value="" style="shape=waypoint;sketch=0;fillStyle=solid;size=6;pointerEvents=1;points=[];fillColor=none;resizable=0;rotatable=0;perimeter=centerPerimeter;snapToPoint=1;fontFamily=Helvetica;fontSize=11;fontColor=default;" parent="1" vertex="1">
          <mxGeometry x="820" y="200" width="40" height="40" as="geometry" />
        </mxCell>
        <mxCell id="Ed7h0rjgSuqTBP_lDaPy-6" value="" style="pointerEvents=1;verticalLabelPosition=bottom;shadow=0;dashed=0;align=center;html=1;verticalAlign=top;shape=mxgraph.electrical.capacitors.capacitor_1;" parent="1" vertex="1">
          <mxGeometry x="360" y="490.0000000000002" width="100" height="60" as="geometry" />
        </mxCell>
        <mxCell id="Ed7h0rjgSuqTBP_lDaPy-7" value="" style="pointerEvents=1;verticalLabelPosition=bottom;shadow=0;dashed=0;align=center;html=1;verticalAlign=top;shape=mxgraph.electrical.capacitors.capacitor_1;" parent="1" vertex="1">
          <mxGeometry x="740" y="490.0000000000002" width="100" height="60" as="geometry" />
        </mxCell>
        <mxCell id="Ed7h0rjgSuqTBP_lDaPy-18" style="edgeStyle=orthogonalEdgeStyle;shape=connector;rounded=0;orthogonalLoop=1;jettySize=auto;html=1;exitX=0;exitY=0.5;exitDx=0;exitDy=0;exitPerimeter=0;entryX=0.467;entryY=0.617;entryDx=0;entryDy=0;entryPerimeter=0;labelBackgroundColor=default;strokeColor=default;fontFamily=Helvetica;fontSize=11;fontColor=default;endArrow=none;endFill=0;" parent="1" source="Ed7h0rjgSuqTBP_lDaPy-8" target="Ed7h0rjgSuqTBP_lDaPy-15" edge="1">
          <mxGeometry relative="1" as="geometry" />
        </mxCell>
        <mxCell id="Ed7h0rjgSuqTBP_lDaPy-19" style="edgeStyle=orthogonalEdgeStyle;shape=connector;rounded=0;orthogonalLoop=1;jettySize=auto;html=1;exitX=1;exitY=0.5;exitDx=0;exitDy=0;exitPerimeter=0;labelBackgroundColor=default;strokeColor=default;fontFamily=Helvetica;fontSize=11;fontColor=default;endArrow=none;endFill=0;" parent="1" source="Ed7h0rjgSuqTBP_lDaPy-8" target="Hx_Fb0d7paaMFf6icbwY-145" edge="1">
          <mxGeometry relative="1" as="geometry" />
        </mxCell>
        <mxCell id="Ed7h0rjgSuqTBP_lDaPy-8" value="" style="pointerEvents=1;verticalLabelPosition=bottom;shadow=0;dashed=0;align=center;html=1;verticalAlign=top;shape=mxgraph.electrical.capacitors.capacitor_1;direction=south;" parent="1" vertex="1">
          <mxGeometry x="480" y="390.0000000000002" width="60" height="100" as="geometry" />
        </mxCell>
        <mxCell id="Ed7h0rjgSuqTBP_lDaPy-27" style="edgeStyle=orthogonalEdgeStyle;shape=connector;rounded=0;orthogonalLoop=1;jettySize=auto;html=1;exitX=0;exitY=0.5;exitDx=0;exitDy=0;exitPerimeter=0;labelBackgroundColor=default;strokeColor=default;fontFamily=Helvetica;fontSize=11;fontColor=default;endArrow=none;endFill=0;" parent="1" source="Ed7h0rjgSuqTBP_lDaPy-9" target="Ed7h0rjgSuqTBP_lDaPy-22" edge="1">
          <mxGeometry relative="1" as="geometry" />
        </mxCell>
        <mxCell id="Ed7h0rjgSuqTBP_lDaPy-28" style="edgeStyle=orthogonalEdgeStyle;shape=connector;rounded=0;orthogonalLoop=1;jettySize=auto;html=1;exitX=1;exitY=0.5;exitDx=0;exitDy=0;exitPerimeter=0;entryX=0.505;entryY=0.435;entryDx=0;entryDy=0;entryPerimeter=0;labelBackgroundColor=default;strokeColor=default;fontFamily=Helvetica;fontSize=11;fontColor=default;endArrow=none;endFill=0;" parent="1" source="Ed7h0rjgSuqTBP_lDaPy-9" target="Hx_Fb0d7paaMFf6icbwY-146" edge="1">
          <mxGeometry relative="1" as="geometry" />
        </mxCell>
        <mxCell id="Ed7h0rjgSuqTBP_lDaPy-9" value="" style="pointerEvents=1;verticalLabelPosition=bottom;shadow=0;dashed=0;align=center;html=1;verticalAlign=top;shape=mxgraph.electrical.capacitors.capacitor_1;direction=south;" parent="1" vertex="1">
          <mxGeometry x="660" y="390.0000000000002" width="60" height="100" as="geometry" />
        </mxCell>
        <mxCell id="Ed7h0rjgSuqTBP_lDaPy-16" style="edgeStyle=orthogonalEdgeStyle;rounded=0;orthogonalLoop=1;jettySize=auto;html=1;exitX=1;exitY=0.5;exitDx=0;exitDy=0;exitPerimeter=0;endArrow=none;endFill=0;" parent="1" source="Ed7h0rjgSuqTBP_lDaPy-10" target="Ed7h0rjgSuqTBP_lDaPy-14" edge="1">
          <mxGeometry relative="1" as="geometry" />
        </mxCell>
        <mxCell id="Ed7h0rjgSuqTBP_lDaPy-17" style="edgeStyle=orthogonalEdgeStyle;shape=connector;rounded=0;orthogonalLoop=1;jettySize=auto;html=1;exitX=0;exitY=0.5;exitDx=0;exitDy=0;exitPerimeter=0;labelBackgroundColor=default;strokeColor=default;fontFamily=Helvetica;fontSize=11;fontColor=default;endArrow=none;endFill=0;" parent="1" source="Ed7h0rjgSuqTBP_lDaPy-10" target="Ed7h0rjgSuqTBP_lDaPy-13" edge="1">
          <mxGeometry relative="1" as="geometry" />
        </mxCell>
        <mxCell id="Ed7h0rjgSuqTBP_lDaPy-10" value="" style="pointerEvents=1;verticalLabelPosition=bottom;shadow=0;dashed=0;align=center;html=1;verticalAlign=top;shape=mxgraph.electrical.capacitors.capacitor_1;direction=south;" parent="1" vertex="1">
          <mxGeometry x="290" y="390.0000000000002" width="60" height="100" as="geometry" />
        </mxCell>
        <mxCell id="Ed7h0rjgSuqTBP_lDaPy-25" style="edgeStyle=orthogonalEdgeStyle;shape=connector;rounded=0;orthogonalLoop=1;jettySize=auto;html=1;exitX=0;exitY=0.5;exitDx=0;exitDy=0;exitPerimeter=0;labelBackgroundColor=default;strokeColor=default;fontFamily=Helvetica;fontSize=11;fontColor=default;endArrow=none;endFill=0;" parent="1" source="Ed7h0rjgSuqTBP_lDaPy-11" target="Ed7h0rjgSuqTBP_lDaPy-23" edge="1">
          <mxGeometry relative="1" as="geometry" />
        </mxCell>
        <mxCell id="Ed7h0rjgSuqTBP_lDaPy-26" style="edgeStyle=orthogonalEdgeStyle;shape=connector;rounded=0;orthogonalLoop=1;jettySize=auto;html=1;exitX=1;exitY=0.5;exitDx=0;exitDy=0;exitPerimeter=0;labelBackgroundColor=default;strokeColor=default;fontFamily=Helvetica;fontSize=11;fontColor=default;endArrow=none;endFill=0;" parent="1" source="Ed7h0rjgSuqTBP_lDaPy-11" target="Ed7h0rjgSuqTBP_lDaPy-24" edge="1">
          <mxGeometry relative="1" as="geometry" />
        </mxCell>
        <mxCell id="Ed7h0rjgSuqTBP_lDaPy-11" value="" style="pointerEvents=1;verticalLabelPosition=bottom;shadow=0;dashed=0;align=center;html=1;verticalAlign=top;shape=mxgraph.electrical.capacitors.capacitor_1;direction=south;" parent="1" vertex="1">
          <mxGeometry x="850" y="390.0000000000002" width="60" height="100" as="geometry" />
        </mxCell>
        <mxCell id="Ed7h0rjgSuqTBP_lDaPy-13" value="" style="shape=waypoint;sketch=0;fillStyle=solid;size=6;pointerEvents=1;points=[];fillColor=none;resizable=0;rotatable=0;perimeter=centerPerimeter;snapToPoint=1;fontFamily=Helvetica;fontSize=11;fontColor=default;" parent="1" vertex="1">
          <mxGeometry x="310" y="350" width="20" height="20" as="geometry" />
        </mxCell>
        <mxCell id="Ed7h0rjgSuqTBP_lDaPy-14" value="" style="shape=waypoint;sketch=0;fillStyle=solid;size=6;pointerEvents=1;points=[];fillColor=none;resizable=0;rotatable=0;perimeter=centerPerimeter;snapToPoint=1;fontFamily=Helvetica;fontSize=11;fontColor=default;" parent="1" vertex="1">
          <mxGeometry x="310" y="510" width="20" height="20" as="geometry" />
        </mxCell>
        <mxCell id="Ed7h0rjgSuqTBP_lDaPy-15" value="" style="shape=waypoint;sketch=0;fillStyle=solid;size=6;pointerEvents=1;points=[];fillColor=none;resizable=0;rotatable=0;perimeter=centerPerimeter;snapToPoint=1;fontFamily=Helvetica;fontSize=11;fontColor=default;" parent="1" vertex="1">
          <mxGeometry x="500" y="350" width="20" height="20" as="geometry" />
        </mxCell>
        <mxCell id="Ed7h0rjgSuqTBP_lDaPy-20" value="" style="shape=waypoint;sketch=0;fillStyle=solid;size=6;pointerEvents=1;points=[];fillColor=none;resizable=0;rotatable=0;perimeter=centerPerimeter;snapToPoint=1;fontFamily=Helvetica;fontSize=11;fontColor=default;" parent="1" vertex="1">
          <mxGeometry x="370" y="510" width="20" height="20" as="geometry" />
        </mxCell>
        <mxCell id="Ed7h0rjgSuqTBP_lDaPy-21" value="" style="shape=waypoint;sketch=0;fillStyle=solid;size=6;pointerEvents=1;points=[];fillColor=none;resizable=0;rotatable=0;perimeter=centerPerimeter;snapToPoint=1;fontFamily=Helvetica;fontSize=11;fontColor=default;" parent="1" vertex="1">
          <mxGeometry x="430" y="510" width="20" height="20" as="geometry" />
        </mxCell>
        <mxCell id="Ed7h0rjgSuqTBP_lDaPy-22" value="" style="shape=waypoint;sketch=0;fillStyle=solid;size=6;pointerEvents=1;points=[];fillColor=none;resizable=0;rotatable=0;perimeter=centerPerimeter;snapToPoint=1;fontFamily=Helvetica;fontSize=11;fontColor=default;" parent="1" vertex="1">
          <mxGeometry x="670" y="340" width="40" height="40" as="geometry" />
        </mxCell>
        <mxCell id="Ed7h0rjgSuqTBP_lDaPy-23" value="" style="shape=waypoint;sketch=0;fillStyle=solid;size=6;pointerEvents=1;points=[];fillColor=none;resizable=0;rotatable=0;perimeter=centerPerimeter;snapToPoint=1;fontFamily=Helvetica;fontSize=11;fontColor=default;" parent="1" vertex="1">
          <mxGeometry x="860" y="340" width="40" height="40" as="geometry" />
        </mxCell>
        <mxCell id="Ed7h0rjgSuqTBP_lDaPy-24" value="" style="shape=waypoint;sketch=0;fillStyle=solid;size=6;pointerEvents=1;points=[];fillColor=none;resizable=0;rotatable=0;perimeter=centerPerimeter;snapToPoint=1;fontFamily=Helvetica;fontSize=11;fontColor=default;" parent="1" vertex="1">
          <mxGeometry x="860" y="500" width="40" height="40" as="geometry" />
        </mxCell>
        <mxCell id="Ed7h0rjgSuqTBP_lDaPy-29" value="" style="shape=waypoint;sketch=0;fillStyle=solid;size=6;pointerEvents=1;points=[];fillColor=none;resizable=0;rotatable=0;perimeter=centerPerimeter;snapToPoint=1;fontFamily=Helvetica;fontSize=11;fontColor=default;" parent="1" vertex="1">
          <mxGeometry x="740" y="500" width="40" height="40" as="geometry" />
        </mxCell>
        <mxCell id="Ed7h0rjgSuqTBP_lDaPy-30" value="" style="shape=waypoint;sketch=0;fillStyle=solid;size=6;pointerEvents=1;points=[];fillColor=none;resizable=0;rotatable=0;perimeter=centerPerimeter;snapToPoint=1;fontFamily=Helvetica;fontSize=11;fontColor=default;" parent="1" vertex="1">
          <mxGeometry x="800" y="500" width="40" height="40" as="geometry" />
        </mxCell>
        <mxCell id="Ed7h0rjgSuqTBP_lDaPy-31" value="" style="verticalLabelPosition=bottom;shadow=0;dashed=0;align=center;html=1;verticalAlign=top;strokeWidth=1;shape=ellipse;perimeter=ellipsePerimeter;aspect=fixed;fontFamily=Helvetica;fontSize=24;fontColor=default;" parent="1" vertex="1">
          <mxGeometry x="636" y="576" width="8" height="8" as="geometry" />
        </mxCell>
        <mxCell id="Ed7h0rjgSuqTBP_lDaPy-32" value="" style="verticalLabelPosition=bottom;shadow=0;dashed=0;align=center;html=1;verticalAlign=top;strokeWidth=1;shape=ellipse;perimeter=ellipsePerimeter;aspect=fixed;fontFamily=Helvetica;fontSize=24;fontColor=default;" parent="1" vertex="1">
          <mxGeometry x="756" y="576" width="8" height="8" as="geometry" />
        </mxCell>
        <mxCell id="Ed7h0rjgSuqTBP_lDaPy-33" value="&lt;font style=&quot;font-size: 24px;&quot;&gt;`v_{out-}`&lt;/font&gt;" style="text;html=1;align=center;verticalAlign=middle;resizable=0;points=[];autosize=1;strokeColor=none;fillColor=none;fontSize=11;fontFamily=Helvetica;fontColor=default;" parent="1" vertex="1">
          <mxGeometry x="680" y="570" width="120" height="40" as="geometry" />
        </mxCell>
        <mxCell id="Ed7h0rjgSuqTBP_lDaPy-34" value="" style="endArrow=classic;html=1;rounded=0;labelBackgroundColor=default;strokeColor=default;fontFamily=Helvetica;fontSize=11;fontColor=default;shape=connector;" parent="1" edge="1">
          <mxGeometry width="50" height="50" relative="1" as="geometry">
            <mxPoint x="620" y="570" as="sourcePoint" />
            <mxPoint x="570" y="570" as="targetPoint" />
          </mxGeometry>
        </mxCell>
        <mxCell id="Ed7h0rjgSuqTBP_lDaPy-36" value="&lt;font style=&quot;font-size: 24px;&quot;&gt;`i_{rl}`&lt;/font&gt;" style="text;html=1;align=center;verticalAlign=middle;resizable=0;points=[];autosize=1;strokeColor=none;fillColor=none;fontSize=11;fontFamily=Helvetica;fontColor=default;" parent="1" vertex="1">
          <mxGeometry x="555" y="530" width="90" height="40" as="geometry" />
        </mxCell>
        <mxCell id="Ed7h0rjgSuqTBP_lDaPy-37" value="&lt;font style=&quot;font-size: 24px;&quot;&gt;`C_{SG}`&lt;/font&gt;" style="text;html=1;align=center;verticalAlign=middle;resizable=0;points=[];autosize=1;strokeColor=none;fillColor=none;fontSize=11;fontFamily=Helvetica;fontColor=default;" parent="1" vertex="1">
          <mxGeometry x="230" y="390" width="120" height="40" as="geometry" />
        </mxCell>
        <mxCell id="Ed7h0rjgSuqTBP_lDaPy-38" value="&lt;font style=&quot;font-size: 24px;&quot;&gt;`C_{SG}`&lt;/font&gt;" style="text;html=1;align=center;verticalAlign=middle;resizable=0;points=[];autosize=1;strokeColor=none;fillColor=none;fontSize=11;fontFamily=Helvetica;fontColor=default;" parent="1" vertex="1">
          <mxGeometry x="850" y="396" width="120" height="40" as="geometry" />
        </mxCell>
        <mxCell id="Ed7h0rjgSuqTBP_lDaPy-39" value="&lt;font style=&quot;font-size: 24px;&quot;&gt;`C_{GD}`&lt;/font&gt;" style="text;html=1;align=center;verticalAlign=middle;resizable=0;points=[];autosize=1;strokeColor=none;fillColor=none;fontSize=11;fontFamily=Helvetica;fontColor=default;" parent="1" vertex="1">
          <mxGeometry x="390" y="530" width="120" height="40" as="geometry" />
        </mxCell>
        <mxCell id="Ed7h0rjgSuqTBP_lDaPy-40" value="&lt;font style=&quot;font-size: 24px;&quot;&gt;`C_{GD}`&lt;/font&gt;" style="text;html=1;align=center;verticalAlign=middle;resizable=0;points=[];autosize=1;strokeColor=none;fillColor=none;fontSize=11;fontFamily=Helvetica;fontColor=default;" parent="1" vertex="1">
          <mxGeometry x="690" y="520" width="120" height="40" as="geometry" />
        </mxCell>
        <mxCell id="Ed7h0rjgSuqTBP_lDaPy-41" value="&lt;font style=&quot;font-size: 24px;&quot;&gt;`C_{SD}`&lt;/font&gt;" style="text;html=1;align=center;verticalAlign=middle;resizable=0;points=[];autosize=1;strokeColor=none;fillColor=none;fontSize=11;fontFamily=Helvetica;fontColor=default;" parent="1" vertex="1">
          <mxGeometry x="425" y="460" width="120" height="40" as="geometry" />
        </mxCell>
        <mxCell id="Ed7h0rjgSuqTBP_lDaPy-42" value="&lt;font style=&quot;font-size: 24px;&quot;&gt;`C_{SD}`&lt;/font&gt;" style="text;html=1;align=center;verticalAlign=middle;resizable=0;points=[];autosize=1;strokeColor=none;fillColor=none;fontSize=11;fontFamily=Helvetica;fontColor=default;" parent="1" vertex="1">
          <mxGeometry x="655" y="450" width="120" height="40" as="geometry" />
        </mxCell>
        <mxCell id="Ed7h0rjgSuqTBP_lDaPy-43" value="" style="endArrow=classic;html=1;rounded=0;labelBackgroundColor=default;strokeColor=default;fontFamily=Helvetica;fontSize=11;fontColor=default;shape=connector;" parent="1" edge="1">
          <mxGeometry width="50" height="50" relative="1" as="geometry">
            <mxPoint x="500" y="380" as="sourcePoint" />
            <mxPoint x="500" y="420" as="targetPoint" />
          </mxGeometry>
        </mxCell>
        <mxCell id="Ed7h0rjgSuqTBP_lDaPy-44" value="&lt;font style=&quot;font-size: 24px;&quot;&gt;`i_{lSD}`&lt;/font&gt;" style="text;html=1;align=center;verticalAlign=middle;resizable=0;points=[];autosize=1;strokeColor=none;fillColor=none;fontSize=11;fontFamily=Helvetica;fontColor=default;" parent="1" vertex="1">
          <mxGeometry x="420" y="370" width="110" height="40" as="geometry" />
        </mxCell>
        <mxCell id="Ed7h0rjgSuqTBP_lDaPy-45" value="" style="endArrow=classic;html=1;rounded=0;labelBackgroundColor=default;strokeColor=default;fontFamily=Helvetica;fontSize=11;fontColor=default;shape=connector;" parent="1" edge="1">
          <mxGeometry width="50" height="50" relative="1" as="geometry">
            <mxPoint x="309.67" y="460" as="sourcePoint" />
            <mxPoint x="309.67" y="500" as="targetPoint" />
          </mxGeometry>
        </mxCell>
        <mxCell id="Ed7h0rjgSuqTBP_lDaPy-46" value="&lt;font style=&quot;font-size: 24px;&quot;&gt;`i_{lSG}`&lt;/font&gt;" style="text;html=1;align=center;verticalAlign=middle;resizable=0;points=[];autosize=1;strokeColor=none;fillColor=none;fontSize=11;fontFamily=Helvetica;fontColor=default;" parent="1" vertex="1">
          <mxGeometry x="230" y="450" width="110" height="40" as="geometry" />
        </mxCell>
        <mxCell id="Ed7h0rjgSuqTBP_lDaPy-47" value="" style="endArrow=classic;html=1;rounded=0;labelBackgroundColor=default;strokeColor=default;fontFamily=Helvetica;fontSize=11;fontColor=default;shape=connector;" parent="1" edge="1">
          <mxGeometry width="50" height="50" relative="1" as="geometry">
            <mxPoint x="370" y="529.31" as="sourcePoint" />
            <mxPoint x="330" y="529.31" as="targetPoint" />
          </mxGeometry>
        </mxCell>
        <mxCell id="Ed7h0rjgSuqTBP_lDaPy-48" value="&lt;font style=&quot;font-size: 24px;&quot;&gt;`i_{lGD}`&lt;/font&gt;" style="text;html=1;align=center;verticalAlign=middle;resizable=0;points=[];autosize=1;strokeColor=none;fillColor=none;fontSize=11;fontFamily=Helvetica;fontColor=default;" parent="1" vertex="1">
          <mxGeometry x="286.5" y="524" width="120" height="40" as="geometry" />
        </mxCell>
        <mxCell id="Ed7h0rjgSuqTBP_lDaPy-49" value="" style="endArrow=classic;html=1;rounded=0;labelBackgroundColor=default;strokeColor=default;fontFamily=Helvetica;fontSize=11;fontColor=default;shape=connector;" parent="1" edge="1">
          <mxGeometry width="50" height="50" relative="1" as="geometry">
            <mxPoint x="700" y="380" as="sourcePoint" />
            <mxPoint x="700" y="420" as="targetPoint" />
          </mxGeometry>
        </mxCell>
        <mxCell id="Ed7h0rjgSuqTBP_lDaPy-50" value="&lt;font style=&quot;font-size: 24px;&quot;&gt;`i_{rSD}`&lt;/font&gt;" style="text;html=1;align=center;verticalAlign=middle;resizable=0;points=[];autosize=1;strokeColor=none;fillColor=none;fontSize=11;fontFamily=Helvetica;fontColor=default;" parent="1" vertex="1">
          <mxGeometry x="670" y="370" width="120" height="40" as="geometry" />
        </mxCell>
        <mxCell id="Ed7h0rjgSuqTBP_lDaPy-51" value="" style="endArrow=classic;html=1;rounded=0;labelBackgroundColor=default;strokeColor=default;fontFamily=Helvetica;fontSize=11;fontColor=default;shape=connector;" parent="1" edge="1">
          <mxGeometry width="50" height="50" relative="1" as="geometry">
            <mxPoint x="830" y="530" as="sourcePoint" />
            <mxPoint x="870" y="530" as="targetPoint" />
          </mxGeometry>
        </mxCell>
        <mxCell id="Ed7h0rjgSuqTBP_lDaPy-54" value="" style="endArrow=classic;html=1;rounded=0;labelBackgroundColor=default;strokeColor=default;fontFamily=Helvetica;fontSize=11;fontColor=default;shape=connector;" parent="1" edge="1">
          <mxGeometry width="50" height="50" relative="1" as="geometry">
            <mxPoint x="890" y="460" as="sourcePoint" />
            <mxPoint x="890" y="500" as="targetPoint" />
          </mxGeometry>
        </mxCell>
        <mxCell id="Ed7h0rjgSuqTBP_lDaPy-55" value="&lt;font style=&quot;font-size: 24px;&quot;&gt;`i_{rSG}`&lt;/font&gt;" style="text;html=1;align=center;verticalAlign=middle;resizable=0;points=[];autosize=1;strokeColor=none;fillColor=none;fontSize=11;fontFamily=Helvetica;fontColor=default;" parent="1" vertex="1">
          <mxGeometry x="860" y="460" width="120" height="40" as="geometry" />
        </mxCell>
        <mxCell id="Ed7h0rjgSuqTBP_lDaPy-56" value="" style="shape=waypoint;sketch=0;fillStyle=solid;size=6;pointerEvents=1;points=[];fillColor=none;resizable=0;rotatable=0;perimeter=centerPerimeter;snapToPoint=1;fontFamily=Helvetica;fontSize=11;fontColor=default;" parent="1" vertex="1">
          <mxGeometry x="550" y="210" width="20" height="20" as="geometry" />
        </mxCell>
        <mxCell id="Ed7h0rjgSuqTBP_lDaPy-57" value="" style="shape=waypoint;sketch=0;fillStyle=solid;size=6;pointerEvents=1;points=[];fillColor=none;resizable=0;rotatable=0;perimeter=centerPerimeter;snapToPoint=1;fontFamily=Helvetica;fontSize=11;fontColor=default;" parent="1" vertex="1">
          <mxGeometry x="630" y="210" width="20" height="20" as="geometry" />
        </mxCell>
      </root>
    </mxGraphModel>
  </diagram>
</mxfile>
